<svg xmlns="http://www.w3.org/2000/svg" xmlns:xlink="http://www.w3.org/1999/xlink" viewBox="0 0 100 120" style="enable-background:new 0 0 100 120;" width="100px" height="120px" xml:space="preserve" fill="#FFF"><path d="M69.55,93.16h-2.93c-0.26,0-0.52,0.03-0.78,0.07l2-7.24c-0.01,0.02-0.01,0.03-0.02,0.05l1.01-3.66 c-1.47-0.04-2.82,1.43-3.24,2.96L62.7,95.83c-0.05,0.12-0.09,0.24-0.12,0.37l-2.42,8.85l0,0c0,0,0,0,0,0 c-0.03,0.09-0.05,0.18-0.06,0.27c-0.01,0.03-0.01,0.06-0.02,0.09c-0.01,0.06-0.02,0.13-0.03,0.19c0,0.03-0.01,0.06-0.01,0.1 c-0.01,0.06-0.01,0.12-0.02,0.19c0,0.03,0,0.06,0,0.09c0,0.07,0,0.15,0,0.22c0,0.02,0,0.03,0,0.05c0,0.09,0.01,0.18,0.02,0.27 c0,0.01,0,0.03,0,0.04c0.01,0.08,0.02,0.15,0.03,0.23c0,0.02,0.01,0.04,0.01,0.07c0.01,0.07,0.03,0.14,0.04,0.2 c0,0.02,0.01,0.04,0.02,0.06c0.02,0.07,0.04,0.15,0.06,0.22c0,0.01,0.01,0.02,0.01,0.03c0.06,0.18,0.13,0.35,0.21,0.51 c0,0,0,0.01,0,0.01c0.04,0.08,0.08,0.16,0.12,0.23c0,0.01,0.01,0.01,0.01,0.02c0.04,0.08,0.09,0.15,0.14,0.22c0,0,0,0,0,0.01 c0.21,0.31,0.46,0.59,0.74,0.84c0,0,0,0,0,0v0c0.73,0.63,1.68,1.01,2.75,1.01h2.93c1.89,0,3.55-1.25,4.04-3.04l2.42-8.85 C74.31,95.72,72.3,93.16,69.55,93.16z M71.19,98.35l-2.15,7.88c-0.28,1.01-1.21,1.72-2.28,1.72h-1.91c-1.43,0-2.5-1.22-2.34-2.57 l2.38-8.65c0.39-0.78,1.21-1.3,2.12-1.3h1.91C70.46,95.44,71.59,96.88,71.19,98.35z"></path><path d="M82.11,93.16h-2.93c-1.89,0-3.55,1.25-4.04,3.04l-2.42,8.85c-0.71,2.61,1.29,5.17,4.04,5.17h2.93 c1.89,0,3.55-1.25,4.04-3.04l2.42-8.85C86.86,95.72,84.86,93.16,82.11,93.16z M83.75,98.35l-2.15,7.88 c-0.28,1.01-1.21,1.72-2.28,1.72h-1.91c-1.55,0-2.68-1.44-2.28-2.92l2.15-7.88c0.28-1.01,1.21-1.72,2.28-1.72h1.91 C83.02,95.44,84.15,96.88,83.75,98.35z"></path><path d="M22.83,93.16H19.9c-0.27,0-0.54,0.03-0.81,0.08l0.01-0.03c-1.43,0.28-2.63,1.27-3.13,2.64 c0,0.01-0.01,0.01-0.01,0.02c-0.02,0.06-0.04,0.13-0.06,0.19c-0.01,0.04-0.03,0.09-0.04,0.13l-0.22,0.82l-5.2,18.86 c-0.44,1.6-0.01,3.8,1.3,4.1l2.38-8.66l0.59-2.14c0.73,0.64,1.69,1.03,2.77,1.03h2.93c1.89,0,3.55-1.25,4.04-3.04l2.42-8.85 C27.58,95.72,25.58,93.16,22.83,93.16z M24.46,98.35l-2.15,7.88c-0.28,1.01-1.21,1.72-2.28,1.72h-1.91 c-1.51,0-2.62-1.37-2.31-2.79l2.29-8.32c0.37-0.84,1.21-1.4,2.17-1.4h1.91C23.74,95.44,24.87,96.88,24.46,98.35z"></path><path d="M40.95,105.03l2.15-7.88c0.28-1.01,1.21-1.72,2.28-1.72h2.7c1.42,0,2.99-0.92,3.02-2.28H45 c-1.89,0-3.55,1.25-4.04,3.04l-2.42,8.85c-0.71,2.61,1.29,5.17,4.04,5.17h1.45c1.42,0,3-0.9,3.02-2.28h-3.83 C41.67,107.95,40.54,106.51,40.95,105.03z"></path><path d="M100,93.27L100,93.27c-1.57,0-2.76,1.55-3.13,2.88l-2.21,7.93c-0.01-0.01-0.01-0.01-0.02-0.02L94,106.43 c-0.34,0.9-1.22,1.52-2.21,1.52h-1.91c-1.41,0-2.47-1.2-2.35-2.52l2.36-8.65c-0.01,0.02-0.02,0.05-0.03,0.08l1-3.61 c-1.42,0-2.83,1.43-3.25,2.97l-2.42,8.85c-0.71,2.61,1.29,5.17,4.04,5.17h2.93c0.28,0,0.56-0.03,0.82-0.08L90.29,120 c1.52-0.01,2.78-1.44,3.19-2.95l2.42-8.85c0.04-0.14,0.07-0.28,0.09-0.42c0.09-0.19,0.16-0.39,0.22-0.6L100,93.27z"></path><path d="M38.97,99.98l0.45-1.65c0.71-2.61-1.29-5.17-4.04-5.17h-2.93c-1.89,0-3.55,1.25-4.04,3.04l-2.42,8.85 c-0.71,2.61,1.29,5.17,4.04,5.17h2.93c0.31,0,0.62-0.04,0.91-0.1l-0.76,2.79c1.57,0,2.77-1.44,3.19-2.95l2.59-9.62 C38.92,100.22,38.95,100.1,38.97,99.98z M32.58,107.95h-1.91c-1.55,0-2.68-1.44-2.28-2.92l2.15-7.88 c0.28-1.01,1.21-1.72,2.28-1.72h1.91c1.55,0,2.68,1.44,2.28,2.91l-2.16,7.89c0,0,0,0,0-0.01l2.15-7.88c0,0,0,0,0,0c0,0,0,0,0,0 l-2.15,7.88C34.58,107.25,33.65,107.95,32.58,107.95z"></path><path d="M58.28,98.47l-6.76,4.42c1.15,0.92,3.03,0.79,4.43-0.13l3.45-2.27c1.35-0.88,2.01-2.41,1.81-3.94 c-0.34-1.88-2.01-3.39-4.12-3.39h-2.93c-1.89,0-3.55,1.25-4.04,3.04l-2.42,8.85c-0.71,2.61,1.29,5.17,4.04,5.17h2.93l0,0h0.04 c1.67,0,3.37-0.94,3.75-2.28l-6.22,0c-1.47-0.09-2.52-1.49-2.13-2.91l2.15-7.88c0.28-1.01,1.21-1.72,2.28-1.72h1.91 c1.22,0,2.17,0.89,2.34,1.98C58.84,97.83,58.63,98.24,58.28,98.47z"></path><path d="M11.85,107.18l1.39-5.14c0.28-1.02-0.5-2.03-1.58-2.02l-6.65,0.02c-0.22,0-0.38-0.21-0.33-0.42l0.71-2.47 c0.24-0.89,1-1.55,1.91-1.69h7.73c0.27-0.92-0.24-2.29-1.72-2.29L7.3,93.16c-1.89,0-3.55,1.25-4.04,3.04l-1.15,4.07 c-0.28,1.02,0.5,2.02,1.58,2.02h6.65c0.22,0,0.38,0.21,0.33,0.42l-0.95,3.53c-0.26,0.95-1.1,1.63-2.08,1.71H0.06 c-0.27,1.01,0.41,2.29,1.75,2.29l6.01-0.01C9.71,110.23,11.36,108.98,11.85,107.18z"></path><path d="M24.6,60.06c0.93-4.29,2.69-7.08,3.14-7.75l16.59-28.48c1.36-2.34,3.82-3.74,6.56-3.74 c2.76,0,5.21,1.4,6.57,3.75c4.02,6.95,11.55,19.92,16.76,28.75c4.11,6.95,4.3,13.13,3.54,17.42c1.09-1.49,9.4-13.79-0.11-29.88 c-6.61-11.18-15.97-27.31-21.7-37.21c-2.25-3.89-7.97-3.9-10.23-0.01L24.2,39.87c0,0-9.49,13.38,0,30.3l0,0 C23.52,66.32,24.05,62.59,24.6,60.06z"></path><path d="M32.69,70.53c0.65-2.98,1.86-4.92,2.18-5.38l11.52-19.78c0.95-1.63,2.65-2.6,4.56-2.6 c1.91,0,3.62,0.97,4.57,2.61c2.79,4.82,8.02,13.83,11.64,19.96c2.85,4.83,2.98,9.11,2.46,12.1c0.76-1.04,6.53-9.57-0.08-20.75 c-4.59-7.77-11.09-18.97-15.07-25.84c-1.56-2.7-5.53-2.71-7.11-0.01L32.41,56.51c0,0-6.59,9.29,0,21.04l0,0 C31.94,74.87,32.31,72.28,32.69,70.53z"></path> </svg>